<svg version="1.1" id="Layer_1" xmlns="http://www.w3.org/2000/svg" xmlns:xlink="http://www.w3.org/1999/xlink" x="0px" y="0px" viewBox="0 0 1190.55 841.89" style="enable-background:new 0 0 1190.55 841.89;" xml:space="preserve">
<style type="text/css">
	.st0{fill:#0F9248;}
</style>
<g>
	<path class="st0" d="M595.27,324.43c-45.16,0-87.12,13.93-121.84,37.7V244.32c0-65.83,52.63-120.89,117.33-122.74
		c1.49-0.04,2.99-0.06,4.51-0.06v-0.01c1.51,0,3,0.02,4.51,0.07c64.69,1.86,117.32,56.92,117.32,122.75v25.94
		c0,10.11,8.2,18.31,18.31,18.31s18.31-8.2,18.31-18.31v-25.94c0-41.42-15.72-80.73-44.26-110.69
		c-28.76-30.19-67.34-47.47-108.58-48.65c-1.84-0.06-3.71-0.09-5.61-0.09c-0.11,0-0.21,0.01-0.31,0.02c-1.77,0-3.52,0.03-5.25,0.08
		c-41.29,1.18-79.86,18.46-108.63,48.65c-28.54,29.96-44.26,69.27-44.26,110.69v149.39c-35.85,38.62-57.83,90.28-57.83,147.01
		c0,119.26,97.02,216.29,216.28,216.29s216.29-97.03,216.29-216.29C811.56,421.45,714.54,324.43,595.27,324.43z M774.02,522.41
		h-84.26c-5.15-69.53-35.92-124.72-60.05-158.02C706.51,379.36,765.99,443.38,774.02,522.41z M581.92,719.84
		c-37.25-2.75-71.36-16.89-98.88-38.96c26.32-21.19,88.87-75.36,102.99-121.85h67.14C646.78,639.46,600.04,699.41,581.92,719.84z
		 M580.45,361.7c16.77,18.44,65.5,78.51,72.62,160.71h-67.6c-15.37-46.75-78.23-100.7-103.55-120.97
		C509.27,379.14,543.27,364.75,580.45,361.7z M455.88,427.51c32.84,25.88,74.49,66.04,90.13,94.9H416.53
		C420.16,486.65,434.35,453.98,455.88,427.51z M416.53,559.02h130.43c-14.71,28.71-56.82,69.56-90.2,95.99
		C434.72,628.36,420.21,595.27,416.53,559.02z M631.19,716.77c24.1-33.78,54.04-88.79,58.69-157.75h84.14
		C766.04,637.55,707.28,701.28,631.19,716.77z"></path>
</g>
</svg>
